<?xml version="1.0" encoding="UTF-8" standalone="no"?>
<!DOCTYPE svg PUBLIC "-//W3C//DTD SVG 1.1//EN" "http://www.w3.org/Graphics/SVG/1.1/DTD/svg11.dtd">
<svg xmlns="http://www.w3.org/2000/svg" version="1.1" viewBox="0.00 0.00 512.00 512.00">
<path fill="#000000" d="
  M 512.00 144.63
  L 512.00 147.32
  Q 510.97 161.81 501.52 171.26
  Q 393.79 279.03 287.34 385.44
  Q 278.64 394.13 274.57 396.63
  C 263.42 403.47 249.24 403.52 237.88 396.92
  Q 233.74 394.52 224.41 385.19
  Q 115.88 276.70 10.25 171.03
  Q 0.99 161.76 0.00 147.20
  L 0.00 144.50
  Q 0.75 133.89 5.78 126.53
  Q 16.49 110.84 35.35 110.20
  Q 44.63 109.89 53.54 114.83
  Q 57.94 117.27 65.00 124.33
  Q 158.85 218.29 255.78 315.14
  Q 256.00 315.36 256.23 315.14
  Q 353.79 217.58 450.22 121.15
  C 464.36 107.02 486.54 106.51 500.90 120.11
  Q 511.01 129.68 512.00 144.63
  Z"
/>
</svg>
