<?xml version="1.0" encoding="UTF-8" standalone="no"?>
<!DOCTYPE svg PUBLIC "-//W3C//DTD SVG 1.1//EN" "http://www.w3.org/Graphics/SVG/1.1/DTD/svg11.dtd">
<svg xmlns="http://www.w3.org/2000/svg" version="1.1" viewBox="0.00 0.00 588.00 103.00">
<g stroke-width="2.00" fill="none" stroke-linecap="butt">
<path stroke="#aeb1fb" vector-effect="non-scaling-stroke" d="
  M 187.3072 51.3543
  A 50.20 46.91 -0.6 0 0 136.6188 4.9726
  A 50.20 46.91 -0.6 0 0 86.9128 52.4057
  A 50.20 46.91 -0.6 0 0 137.6012 98.7874
  A 50.20 46.91 -0.6 0 0 187.3072 51.3543"
/>
<path stroke="#9bb8ff" vector-effect="non-scaling-stroke" d="
  M 30.09 36.00
  C 28.49 33.68 28.76 29.59 31.33 27.93
  C 33.51 26.52 36.11 25.50 38.70 25.23
  Q 49.21 24.17 59.36 27.92
  Q 63.18 29.34 67.29 31.42
  A 1.12 1.12 0.0 0 0 68.84 30.84
  L 75.92 13.41
  A 0.77 0.77 0.0 0 0 75.60 12.46
  Q 72.74 10.74 69.73 9.66
  Q 48.99 2.22 27.99 6.79
  C 16.64 9.25 7.07 16.87 4.49 28.71
  Q 2.03 39.96 8.94 49.51
  C 11.37 52.86 15.80 55.50 19.64 56.79
  Q 29.51 60.08 43.49 63.40
  Q 47.09 64.26 51.01 65.99
  C 56.27 68.31 56.23 74.78 50.87 76.92
  C 45.60 79.02 38.00 79.11 32.85 78.22
  Q 25.64 76.96 19.11 74.57
  C 16.31 73.54 13.95 71.93 11.46 70.36
  A 0.85 0.85 0.0 0 0 10.23 70.73
  L 2.59 87.77
  A 0.94 0.94 0.0 0 0 2.93 88.94
  Q 8.75 92.72 14.91 94.68
  Q 35.65 101.28 56.47 96.57
  Q 66.22 94.36 73.36 86.65
  Q 81.71 77.63 79.42 64.44
  Q 78.35 58.29 74.11 54.07
  Q 68.20 48.18 60.62 45.83
  C 52.31 43.26 42.60 41.44 33.67 38.32
  Q 31.05 37.40 30.09 36.00"
/>
<path stroke="#d5a1f0" vector-effect="non-scaling-stroke" d="
  M 401.74 7.67
  A 0.95 0.95 0.0 0 0 400.79 6.72
  L 377.13 6.72
  A 0.95 0.95 0.0 0 0 376.18 7.67
  L 376.18 95.85
  A 0.95 0.95 0.0 0 0 377.13 96.80
  L 400.79 96.80
  A 0.95 0.95 0.0 0 0 401.74 95.85
  L 401.74 7.67"
/>
<path stroke="#c0a9f5" vector-effect="non-scaling-stroke" d="
  M 264.51 69.25
  A 0.83 0.83 0.0 0 1 264.77 68.06
  Q 283.28 57.44 281.39 36.72
  C 280.68 28.95 277.20 22.13 271.68 16.76
  C 266.07 11.30 255.94 7.62 248.63 7.27
  Q 231.50 6.44 201.00 7.04
  Q 200.50 7.05 200.50 7.55
  L 200.50 25.98
  A 0.79 0.78 0.0 0 0 201.29 26.76
  Q 219.14 26.73 239.94 26.76
  C 245.73 26.77 251.53 28.08 254.49 33.64
  Q 257.74 39.75 254.32 46.76
  C 252.14 51.24 246.44 52.93 241.74 53.01
  Q 220.62 53.33 201.01 53.29
  Q 200.50 53.29 200.50 53.80
  L 200.50 96.23
  A 0.49 0.48 0.6 0 0 200.98 96.71
  L 224.98 97.02
  A 1.00 1.00 0.0 0 0 225.99 96.02
  L 226.01 73.92
  A 1.18 1.18 0.0 0 1 227.19 72.75
  L 239.15 72.75
  A 1.21 1.20 72.3 0 1 240.13 73.26
  L 255.57 95.95
  A 1.74 1.74 0.0 0 0 256.99 96.71
  L 282.28 97.02
  A 0.75 0.74 73.0 0 0 282.90 95.85
  L 264.51 69.25"
/>
<path stroke="#d5a1f0" vector-effect="non-scaling-stroke" d="
  M 339.24 27.75
  A 0.76 0.76 0.0 0 1 340.00 26.99
  L 366.01 27.01
  A 0.76 0.76 0.0 0 0 366.77 26.25
  L 366.73 7.51
  A 0.76 0.76 0.0 0 0 365.97 6.75
  L 286.77 6.75
  A 0.76 0.76 0.0 0 0 286.01 7.51
  L 285.99 26.25
  A 0.76 0.76 0.0 0 0 286.75 27.01
  L 313.01 26.99
  A 0.76 0.76 0.0 0 1 313.77 27.75
  L 313.79 96.23
  A 0.76 0.76 0.0 0 0 314.55 96.99
  L 338.48 97.00
  A 0.76 0.76 0.0 0 0 339.24 96.24
  L 339.24 27.75"
/>
<path stroke="#d5a1f0" vector-effect="non-scaling-stroke" d="
  M 488.02 7.06
  A 0.26 0.26 0.0 0 0 487.76 6.80
  L 420.20 6.80
  A 0.26 0.26 0.0 0 0 419.94 7.06
  L 419.94 26.24
  A 0.26 0.26 0.0 0 0 420.20 26.50
  L 487.76 26.50
  A 0.26 0.26 0.0 0 0 488.02 26.24
  L 488.02 7.06"
/>
<path stroke="#d5a1f0" vector-effect="non-scaling-stroke" d="
  M 539.11 42.17
  Q 538.75 41.99 538.55 41.65
  Q 528.25 24.23 518.07 7.21
  A 0.94 0.93 -15.0 0 0 517.26 6.75
  L 491.69 6.75
  A 0.36 0.36 0.0 0 0 491.38 7.30
  L 524.64 63.15
  A 6.09 6.04 29.8 0 1 525.50 66.26
  L 525.50 96.25
  A 0.75 0.75 0.0 0 0 526.25 97.00
  L 549.98 97.00
  A 0.74 0.73 -89.6 0 0 550.71 96.27
  L 551.02 66.06
  A 6.45 6.43 60.8 0 1 551.95 62.76
  L 584.98 7.55
  A 0.53 0.53 0.0 0 0 584.52 6.75
  L 561.28 6.75
  Q 560.74 6.75 560.47 7.21
  L 539.66 42.01
  A 0.43 0.42 28.5 0 1 539.11 42.17"
/>
<path stroke="#d5a1f0" vector-effect="non-scaling-stroke" d="
  M 445.36 66.69
  A 0.69 0.69 0.0 0 1 446.05 66.00
  L 487.30 66.00
  A 0.69 0.69 0.0 0 0 487.99 65.31
  L 488.03 46.94
  A 0.69 0.69 0.0 0 0 487.34 46.25
  L 420.60 46.25
  A 0.69 0.69 0.0 0 0 419.91 46.94
  L 419.94 96.31
  A 0.69 0.69 0.0 0 0 420.63 97.00
  L 444.58 97.00
  A 0.69 0.69 0.0 0 0 445.27 96.31
  L 445.36 66.69"
/>
<path stroke="#aeb1fb" vector-effect="non-scaling-stroke" d="
  M 137.1550 77.6300
  A 25.78 24.51 89.9 0 0 161.6200 51.8072
  A 25.78 24.51 89.9 0 0 137.0650 26.0700
  A 25.78 24.51 89.9 0 0 112.6000 51.8928
  A 25.78 24.51 89.9 0 0 137.1550 77.6300"
/>
</g>
<path fill="#ffffff" d="
  M 0.00 0.00
  L 588.00 0.00
  L 588.00 103.00
  L 0.00 103.00
  L 0.00 0.00
  Z
  M 187.3072 51.3543
  A 50.20 46.91 -0.6 0 0 136.6188 4.9726
  A 50.20 46.91 -0.6 0 0 86.9128 52.4057
  A 50.20 46.91 -0.6 0 0 137.6012 98.7874
  A 50.20 46.91 -0.6 0 0 187.3072 51.3543
  Z
  M 30.09 36.00
  C 28.49 33.68 28.76 29.59 31.33 27.93
  C 33.51 26.52 36.11 25.50 38.70 25.23
  Q 49.21 24.17 59.36 27.92
  Q 63.18 29.34 67.29 31.42
  A 1.12 1.12 0.0 0 0 68.84 30.84
  L 75.92 13.41
  A 0.77 0.77 0.0 0 0 75.60 12.46
  Q 72.74 10.74 69.73 9.66
  Q 48.99 2.22 27.99 6.79
  C 16.64 9.25 7.07 16.87 4.49 28.71
  Q 2.03 39.96 8.94 49.51
  C 11.37 52.86 15.80 55.50 19.64 56.79
  Q 29.51 60.08 43.49 63.40
  Q 47.09 64.26 51.01 65.99
  C 56.27 68.31 56.23 74.78 50.87 76.92
  C 45.60 79.02 38.00 79.11 32.85 78.22
  Q 25.64 76.96 19.11 74.57
  C 16.31 73.54 13.95 71.93 11.46 70.36
  A 0.85 0.85 0.0 0 0 10.23 70.73
  L 2.59 87.77
  A 0.94 0.94 0.0 0 0 2.93 88.94
  Q 8.75 92.72 14.91 94.68
  Q 35.65 101.28 56.47 96.57
  Q 66.22 94.36 73.36 86.65
  Q 81.71 77.63 79.42 64.44
  Q 78.35 58.29 74.11 54.07
  Q 68.20 48.18 60.62 45.83
  C 52.31 43.26 42.60 41.44 33.67 38.32
  Q 31.05 37.40 30.09 36.00
  Z
  M 401.74 7.67
  A 0.95 0.95 0.0 0 0 400.79 6.72
  L 377.13 6.72
  A 0.95 0.95 0.0 0 0 376.18 7.67
  L 376.18 95.85
  A 0.95 0.95 0.0 0 0 377.13 96.80
  L 400.79 96.80
  A 0.95 0.95 0.0 0 0 401.74 95.85
  L 401.74 7.67
  Z
  M 264.51 69.25
  A 0.83 0.83 0.0 0 1 264.77 68.06
  Q 283.28 57.44 281.39 36.72
  C 280.68 28.95 277.20 22.13 271.68 16.76
  C 266.07 11.30 255.94 7.62 248.63 7.27
  Q 231.50 6.44 201.00 7.04
  Q 200.50 7.05 200.50 7.55
  L 200.50 25.98
  A 0.79 0.78 0.0 0 0 201.29 26.76
  Q 219.14 26.73 239.94 26.76
  C 245.73 26.77 251.53 28.08 254.49 33.64
  Q 257.74 39.75 254.32 46.76
  C 252.14 51.24 246.44 52.93 241.74 53.01
  Q 220.62 53.33 201.01 53.29
  Q 200.50 53.29 200.50 53.80
  L 200.50 96.23
  A 0.49 0.48 0.6 0 0 200.98 96.71
  L 224.98 97.02
  A 1.00 1.00 0.0 0 0 225.99 96.02
  L 226.01 73.92
  A 1.18 1.18 0.0 0 1 227.19 72.75
  L 239.15 72.75
  A 1.21 1.20 72.3 0 1 240.13 73.26
  L 255.57 95.95
  A 1.74 1.74 0.0 0 0 256.99 96.71
  L 282.28 97.02
  A 0.75 0.74 73.0 0 0 282.90 95.85
  L 264.51 69.25
  Z
  M 339.24 27.75
  A 0.76 0.76 0.0 0 1 340.00 26.99
  L 366.01 27.01
  A 0.76 0.76 0.0 0 0 366.77 26.25
  L 366.73 7.51
  A 0.76 0.76 0.0 0 0 365.97 6.75
  L 286.77 6.75
  A 0.76 0.76 0.0 0 0 286.01 7.51
  L 285.99 26.25
  A 0.76 0.76 0.0 0 0 286.75 27.01
  L 313.01 26.99
  A 0.76 0.76 0.0 0 1 313.77 27.75
  L 313.79 96.23
  A 0.76 0.76 0.0 0 0 314.55 96.99
  L 338.48 97.00
  A 0.76 0.76 0.0 0 0 339.24 96.24
  L 339.24 27.75
  Z
  M 488.02 7.06
  A 0.26 0.26 0.0 0 0 487.76 6.80
  L 420.20 6.80
  A 0.26 0.26 0.0 0 0 419.94 7.06
  L 419.94 26.24
  A 0.26 0.26 0.0 0 0 420.20 26.50
  L 487.76 26.50
  A 0.26 0.26 0.0 0 0 488.02 26.24
  L 488.02 7.06
  Z
  M 539.11 42.17
  Q 538.75 41.99 538.55 41.65
  Q 528.25 24.23 518.07 7.21
  A 0.94 0.93 -15.0 0 0 517.26 6.75
  L 491.69 6.75
  A 0.36 0.36 0.0 0 0 491.38 7.30
  L 524.64 63.15
  A 6.09 6.04 29.8 0 1 525.50 66.26
  L 525.50 96.25
  A 0.75 0.75 0.0 0 0 526.25 97.00
  L 549.98 97.00
  A 0.74 0.73 -89.6 0 0 550.71 96.27
  L 551.02 66.06
  A 6.45 6.43 60.8 0 1 551.95 62.76
  L 584.98 7.55
  A 0.53 0.53 0.0 0 0 584.52 6.75
  L 561.28 6.75
  Q 560.74 6.75 560.47 7.21
  L 539.66 42.01
  A 0.43 0.42 28.5 0 1 539.11 42.17
  Z
  M 445.36 66.69
  A 0.69 0.69 0.0 0 1 446.05 66.00
  L 487.30 66.00
  A 0.69 0.69 0.0 0 0 487.99 65.31
  L 488.03 46.94
  A 0.69 0.69 0.0 0 0 487.34 46.25
  L 420.60 46.25
  A 0.69 0.69 0.0 0 0 419.91 46.94
  L 419.94 96.31
  A 0.69 0.69 0.0 0 0 420.63 97.00
  L 444.58 97.00
  A 0.69 0.69 0.0 0 0 445.27 96.31
  L 445.36 66.69
  Z"
/>
<path fill="#5c62f6" d="
  M 187.3072 51.3543
  A 50.20 46.91 -0.6 0 1 137.6012 98.7874
  A 50.20 46.91 -0.6 0 1 86.9128 52.4057
  A 50.20 46.91 -0.6 0 1 136.6188 4.9726
  A 50.20 46.91 -0.6 0 1 187.3072 51.3543
  Z
  M 137.1550 77.6300
  A 25.78 24.51 89.9 0 0 161.6200 51.8072
  A 25.78 24.51 89.9 0 0 137.0650 26.0700
  A 25.78 24.51 89.9 0 0 112.6000 51.8928
  A 25.78 24.51 89.9 0 0 137.1550 77.6300
  Z"
/>
<path fill="#3770fe" d="
  M 33.67 38.32
  C 42.60 41.44 52.31 43.26 60.62 45.83
  Q 68.20 48.18 74.11 54.07
  Q 78.35 58.29 79.42 64.44
  Q 81.71 77.63 73.36 86.65
  Q 66.22 94.36 56.47 96.57
  Q 35.65 101.28 14.91 94.68
  Q 8.75 92.72 2.93 88.94
  A 0.94 0.94 0.0 0 1 2.59 87.77
  L 10.23 70.73
  A 0.85 0.85 0.0 0 1 11.46 70.36
  C 13.95 71.93 16.31 73.54 19.11 74.57
  Q 25.64 76.96 32.85 78.22
  C 38.00 79.11 45.60 79.02 50.87 76.92
  C 56.23 74.78 56.27 68.31 51.01 65.99
  Q 47.09 64.26 43.49 63.40
  Q 29.51 60.08 19.64 56.79
  C 15.80 55.50 11.37 52.86 8.94 49.51
  Q 2.03 39.96 4.49 28.71
  C 7.07 16.87 16.64 9.25 27.99 6.79
  Q 48.99 2.22 69.73 9.66
  Q 72.74 10.74 75.60 12.46
  A 0.77 0.77 0.0 0 1 75.92 13.41
  L 68.84 30.84
  A 1.12 1.12 0.0 0 1 67.29 31.42
  Q 63.18 29.34 59.36 27.92
  Q 49.21 24.17 38.70 25.23
  C 36.11 25.50 33.51 26.52 31.33 27.93
  C 28.76 29.59 28.49 33.68 30.09 36.00
  Q 31.05 37.40 33.67 38.32
  Z"
/>
<rect fill="#ab42e1" x="376.18" y="6.72" width="25.56" height="90.08" rx="0.95"/>
<path fill="#8053eb" d="
  M 264.51 69.25
  L 282.90 95.85
  A 0.75 0.74 73.0 0 1 282.28 97.02
  L 256.99 96.71
  A 1.74 1.74 0.0 0 1 255.57 95.95
  L 240.13 73.26
  A 1.21 1.20 72.3 0 0 239.15 72.75
  L 227.19 72.75
  A 1.18 1.18 0.0 0 0 226.01 73.92
  L 225.99 96.02
  A 1.00 1.00 0.0 0 1 224.98 97.02
  L 200.98 96.71
  A 0.49 0.48 0.6 0 1 200.50 96.23
  L 200.50 53.80
  Q 200.50 53.29 201.01 53.29
  Q 220.62 53.33 241.74 53.01
  C 246.44 52.93 252.14 51.24 254.32 46.76
  Q 257.74 39.75 254.49 33.64
  C 251.53 28.08 245.73 26.77 239.94 26.76
  Q 219.14 26.73 201.29 26.76
  A 0.79 0.78 -0.0 0 1 200.50 25.98
  L 200.50 7.55
  Q 200.50 7.05 201.00 7.04
  Q 231.50 6.44 248.63 7.27
  C 255.94 7.62 266.07 11.30 271.68 16.76
  C 277.20 22.13 280.68 28.95 281.39 36.72
  Q 283.28 57.44 264.77 68.06
  A 0.83 0.83 0.0 0 0 264.51 69.25
  Z"
/>
<path fill="#ab42e1" d="
  M 339.24 27.75
  L 339.24 96.24
  A 0.76 0.76 0.0 0 1 338.48 97.00
  L 314.55 96.99
  A 0.76 0.76 0.0 0 1 313.79 96.23
  L 313.77 27.75
  A 0.76 0.76 0.0 0 0 313.01 26.99
  L 286.75 27.01
  A 0.76 0.76 0.0 0 1 285.99 26.25
  L 286.01 7.51
  A 0.76 0.76 0.0 0 1 286.77 6.75
  L 365.97 6.75
  A 0.76 0.76 0.0 0 1 366.73 7.51
  L 366.77 26.25
  A 0.76 0.76 0.0 0 1 366.01 27.01
  L 340.00 26.99
  A 0.76 0.76 0.0 0 0 339.24 27.75
  Z"
/>
<rect fill="#ab42e1" x="419.94" y="6.80" width="68.08" height="19.70" rx="0.26"/>
<path fill="#ab42e1" d="
  M 539.11 42.17
  A 0.43 0.42 28.5 0 0 539.66 42.01
  L 560.47 7.21
  Q 560.74 6.75 561.28 6.75
  L 584.52 6.75
  A 0.53 0.53 0.0 0 1 584.98 7.55
  L 551.95 62.76
  A 6.45 6.43 60.8 0 0 551.02 66.06
  L 550.71 96.27
  A 0.74 0.73 -89.6 0 1 549.98 97.00
  L 526.25 97.00
  A 0.75 0.75 0.0 0 1 525.50 96.25
  L 525.50 66.26
  A 6.09 6.04 29.8 0 0 524.64 63.15
  L 491.38 7.30
  A 0.36 0.36 0.0 0 1 491.69 6.75
  L 517.26 6.75
  A 0.94 0.93 -15.0 0 1 518.07 7.21
  Q 528.25 24.23 538.55 41.65
  Q 538.75 41.99 539.11 42.17
  Z"
/>
<ellipse fill="#ffffff" cx="0.00" cy="0.00" transform="translate(137.11,51.85) rotate(89.9)" rx="25.78" ry="24.51"/>
<path fill="#ab42e1" d="
  M 445.36 66.69
  L 445.27 96.31
  A 0.69 0.69 0.0 0 1 444.58 97.00
  L 420.63 97.00
  A 0.69 0.69 0.0 0 1 419.94 96.31
  L 419.91 46.94
  A 0.69 0.69 0.0 0 1 420.60 46.25
  L 487.34 46.25
  A 0.69 0.69 0.0 0 1 488.03 46.94
  L 487.99 65.31
  A 0.69 0.69 0.0 0 1 487.30 66.00
  L 446.05 66.00
  A 0.69 0.69 0.0 0 0 445.36 66.69
  Z"
/>
</svg>
